<svg width="24" height="24" viewBox="0 0 24 24" fill="none" xmlns="http://www.w3.org/2000/svg">
<path d="M13.7742 14.439C14.5402 16.7093 15.0552 19.0566 15.3102 21.439C14.2464 21.8114 13.1272 22.0011 12.0002 22C10.0174 22.003 8.07888 21.4139 6.43315 20.308C7.2 18.887 8.2451 17.635 9.50613 16.6265C10.7672 15.618 12.2183 14.8737 13.7732 14.438L13.7742 14.439ZM21.5732 14.902C20.8591 17.2482 19.3097 19.2513 17.2182 20.532C16.9385 18.3344 16.4496 16.1686 15.7582 14.064C17.7359 13.8596 19.7336 14.1475 21.5732 14.902ZM12.1452 10.485C12.4772 11.163 12.7882 11.855 13.0752 12.558C9.61176 13.5731 6.67256 15.8834 4.86815 19.009C3.85421 17.97 3.07668 16.7243 2.58876 15.357C2.10084 13.9897 1.91404 12.5332 2.04115 11.087C5.38415 11.795 8.91115 11.589 12.1452 10.485ZM19.7201 5.644C21.3862 7.67864 22.1902 10.2843 21.9601 12.904C19.7603 12.076 17.3884 11.8113 15.0602 12.134C14.7387 11.3217 14.3868 10.5218 14.0052 9.736C16.1475 8.7383 18.0855 7.35068 19.7201 5.644ZM7.26615 3.19C8.76054 4.88504 10.0774 6.72865 11.1962 8.692C8.35797 9.59595 5.33311 9.74416 2.42015 9.122C3.18682 6.58128 4.92945 4.44812 7.26615 3.19ZM12.0002 2C14.3882 2 16.5811 2.837 18.3001 4.234C16.8116 5.79515 15.0403 7.05953 13.0802 7.96C11.9762 5.9838 10.6835 4.1191 9.22015 2.392C10.1238 2.13132 11.0597 1.99936 12.0002 2Z" fill="black"/>
</svg>
